<?xml version="1.0" encoding="utf-8"?>
<!-- Generator: Adobe Illustrator 22.1.0, SVG Export Plug-In . SVG Version: 6.00 Build 0)  -->
<svg version="1.1" id="Capa_1" xmlns="http://www.w3.org/2000/svg" xmlns:xlink="http://www.w3.org/1999/xlink" x="0px" y="0px"
	 viewBox="0 0 150 150" style="enable-background:new 0 0 150 150;" xml:space="preserve">
<style type="text/css">
	.st0{fill:#323232;}
	.st1{fill:#C9593B;}
</style>
<g>
	<polygon class="st0" points="102.8,128.9 98.8,135.9 96,135.9 91.4,129.2 91.4,140.2 102.8,140.2 	"/>
	<path class="st1" d="M102.7,125.3V53.7L91.4,75.4v49.9l5.2,7.3h1.7C98.2,132.6,103,124.9,102.7,125.3"/>
	<path class="st0" d="M39.7,146.2H39v-1.8v-1.7h0.4h1c0.7,0,1.2,0.2,1.5,0.5c0.3,0.3,0.5,0.8,0.5,1.2c0,0.5-0.2,0.9-0.5,1.2
		c-0.3,0.3-0.8,0.5-1.5,0.5H39.7z M41.5,143.6c-0.2-0.2-0.6-0.4-1-0.4h-0.4h-0.4v1.2v0.5v0.7h0.4h0.4c0.5,0,0.8-0.1,1-0.4
		c0.2-0.2,0.3-0.5,0.3-0.9C41.8,144.1,41.7,143.8,41.5,143.6"/>
	<polygon class="st0" points="43.2,142.7 43.9,142.7 46.1,142.7 46.1,143.2 43.9,143.2 43.9,144.2 45.9,144.2 45.9,144.7 
		43.9,144.7 43.9,145.7 46.1,145.7 46.1,146.2 43.9,146.2 43.2,146.2 	"/>
	<path class="st0" d="M47.6,143.3c-0.1,0.1-0.2,0.2-0.2,0.4c0,0.1,0,0.2,0.1,0.2c0.1,0.1,0.1,0.1,0.3,0.1c0.2,0.1,0.4,0.1,0.7,0.2
		c0.3,0,0.5,0.1,0.8,0.2c0.1,0.1,0.3,0.2,0.4,0.3c0.1,0.1,0.1,0.3,0.1,0.5c0,0.1,0,0.3-0.1,0.4c0,0.1-0.1,0.2-0.2,0.3
		c-0.2,0.2-0.3,0.3-0.6,0.3c-0.2,0.1-0.5,0.1-0.7,0.1s-0.5,0-0.7-0.1c-0.2-0.1-0.4-0.2-0.6-0.4c-0.1-0.1-0.1-0.2-0.2-0.3
		c0-0.1-0.1-0.2-0.1-0.4h0.7c0,0.2,0.1,0.4,0.3,0.5c0.2,0.1,0.4,0.2,0.6,0.2c0.2,0,0.5,0,0.6-0.1c0.2-0.1,0.3-0.2,0.3-0.4
		c0-0.1,0-0.2-0.1-0.2c-0.1-0.1-0.2-0.1-0.3-0.1c-0.2-0.1-0.4-0.1-0.7-0.2c-0.3,0-0.5-0.1-0.8-0.2c-0.1-0.1-0.3-0.2-0.4-0.3
		c-0.1-0.1-0.1-0.3-0.1-0.5c0-0.1,0-0.3,0.1-0.4c0-0.1,0.1-0.2,0.2-0.3c0.1-0.2,0.3-0.3,0.6-0.3c0.2-0.1,0.4-0.1,0.6-0.1
		c0.1,0,0.2,0,0.3,0c0.1,0,0.2,0.1,0.4,0.1c0.2,0.1,0.4,0.2,0.5,0.4c0.2,0.2,0.2,0.4,0.2,0.6H49c0-0.2-0.1-0.3-0.2-0.4
		c-0.1-0.1-0.3-0.2-0.6-0.2C48,143.2,47.8,143.2,47.6,143.3"/>
	<path class="st0" d="M52.3,142.7L52.3,142.7c0.4,0.8,1,2,1.7,3.5h-0.7c-0.1-0.2-0.2-0.4-0.3-0.8h-1.9c-0.1,0.2-0.2,0.5-0.4,0.8H50
		c0.3-0.6,0.8-1.8,1.7-3.5H52h0.1H52.3z M51.3,145h1.1h0.3c-0.2-0.4-0.4-1-0.7-1.6C51.8,143.8,51.6,144.4,51.3,145"/>
	<path class="st0" d="M57.9,146.2h-0.8c-0.2-0.2-0.5-0.7-1-1.4h-0.4h-0.5v0.6v0.7h-0.4h-0.2v-0.7v-0.6v-1.2v-1h0.6h1.1
		c0.5,0,0.8,0.1,1.1,0.3c0.2,0.2,0.4,0.5,0.4,0.8c0,0.3-0.1,0.6-0.4,0.8c-0.1,0.1-0.3,0.2-0.5,0.2C57,145.1,57.4,145.6,57.9,146.2
		 M56.8,143.4c-0.1-0.1-0.3-0.1-0.6-0.1h-0.5h-0.5v0.5v0.1v0.4h0.5h0.5c0.2,0,0.4,0,0.6-0.1c0.1-0.1,0.2-0.2,0.2-0.4
		C57,143.6,57,143.5,56.8,143.4"/>
	<path class="st0" d="M61.8,146.2H61c-0.2-0.2-0.5-0.7-1-1.4h-0.4h-0.5v0.6v0.7h-0.4h-0.2v-0.7v-0.6v-1.2v-1h0.6h1.1
		c0.5,0,0.8,0.1,1.1,0.3c0.2,0.2,0.4,0.5,0.4,0.8c0,0.3-0.1,0.6-0.4,0.8c-0.1,0.1-0.3,0.2-0.5,0.2C61,145.1,61.3,145.6,61.8,146.2
		 M60.8,143.4c-0.1-0.1-0.3-0.1-0.6-0.1h-0.5h-0.5v0.5v0.1v0.4h0.5h0.5c0.2,0,0.4,0,0.6-0.1c0.1-0.1,0.2-0.2,0.2-0.4
		C61,143.6,60.9,143.5,60.8,143.4"/>
	<path class="st0" d="M62.7,145.8c-0.3-0.4-0.5-0.8-0.5-1.3c0-0.5,0.2-1,0.5-1.3c0.3-0.4,0.8-0.5,1.4-0.5c0.6,0,1,0.2,1.4,0.5
		c0.3,0.4,0.5,0.8,0.5,1.3c0,0.5-0.2,1-0.5,1.3c-0.3,0.4-0.8,0.5-1.4,0.5C63.5,146.3,63.1,146.2,62.7,145.8 M64.9,143.5
		c-0.2-0.2-0.5-0.4-0.9-0.4c-0.3,0-0.6,0.1-0.9,0.4c-0.2,0.2-0.3,0.6-0.3,1c0,0.4,0.1,0.7,0.3,0.9c0.2,0.2,0.5,0.4,0.9,0.4
		c0.3,0,0.6-0.1,0.9-0.4c0.2-0.2,0.3-0.6,0.3-0.9C65.3,144.1,65.2,143.8,64.9,143.5"/>
	<polygon class="st0" points="69.4,145.7 69.4,146.2 67.3,146.2 66.7,146.2 66.7,145.7 66.7,142.7 67.3,142.7 67.3,145.7 	"/>
	<polygon class="st0" points="72.7,145.7 72.7,146.2 70.7,146.2 70,146.2 70,145.7 70,142.7 70.7,142.7 70.7,145.7 	"/>
	<path class="st0" d="M75.3,142.7L75.3,142.7c0.4,0.8,1,2,1.7,3.5h-0.7c-0.1-0.2-0.2-0.4-0.3-0.8H74c-0.1,0.2-0.2,0.5-0.4,0.8H73
		c0.3-0.6,0.8-1.8,1.7-3.5h0.2H75H75.3z M74.2,145h1.1h0.3c-0.2-0.4-0.4-1-0.7-1.6C74.8,143.8,74.5,144.4,74.2,145"/>
	<path class="st0" d="M78.2,146.2h-0.7v-1.8v-1.7H78h1c0.7,0,1.2,0.2,1.5,0.5c0.3,0.3,0.5,0.8,0.5,1.2c0,0.5-0.2,0.9-0.5,1.2
		c-0.3,0.3-0.8,0.5-1.5,0.5H78.2z M80,143.6c-0.2-0.2-0.6-0.4-1-0.4h-0.4h-0.4v1.2v0.5v0.7h0.4H79c0.5,0,0.8-0.1,1-0.4
		c0.2-0.2,0.3-0.5,0.3-0.9C80.4,144.1,80.2,143.8,80,143.6"/>
	<path class="st0" d="M82.1,145.8c-0.3-0.4-0.5-0.8-0.5-1.3c0-0.5,0.2-1,0.5-1.3c0.3-0.4,0.8-0.5,1.4-0.5c0.6,0,1,0.2,1.4,0.5
		c0.3,0.4,0.5,0.8,0.5,1.3c0,0.5-0.2,1-0.5,1.3c-0.3,0.4-0.8,0.5-1.4,0.5C82.9,146.3,82.4,146.2,82.1,145.8 M84.3,143.5
		c-0.2-0.2-0.5-0.4-0.9-0.4c-0.3,0-0.6,0.1-0.9,0.4c-0.2,0.2-0.3,0.6-0.3,1c0,0.4,0.1,0.7,0.3,0.9c0.2,0.2,0.5,0.4,0.9,0.4
		c0.3,0,0.6-0.1,0.9-0.4c0.2-0.2,0.3-0.6,0.3-0.9C84.6,144.1,84.5,143.8,84.3,143.5"/>
	<path class="st0" d="M89.3,146.2h-0.8c-0.2-0.2-0.5-0.7-1-1.4h-0.4h-0.5v0.6v0.7h-0.4H86v-0.7v-0.6v-1.2v-1h0.6h1.1
		c0.5,0,0.8,0.1,1.1,0.3c0.2,0.2,0.4,0.5,0.4,0.8c0,0.3-0.1,0.6-0.4,0.8c-0.1,0.1-0.3,0.2-0.5,0.2C88.5,145.1,88.8,145.6,89.3,146.2
		 M88.3,143.4c-0.1-0.1-0.3-0.1-0.6-0.1h-0.5h-0.5v0.5v0.1v0.4h0.5h0.5c0.2,0,0.4,0,0.6-0.1c0.1-0.1,0.2-0.2,0.2-0.4
		C88.5,143.6,88.4,143.5,88.3,143.4"/>
	<path class="st0" d="M91.9,142.7L91.9,142.7c0.4,0.8,1,2,1.7,3.5h-0.7c-0.1-0.2-0.2-0.4-0.3-0.8h-1.9c-0.1,0.2-0.2,0.5-0.4,0.8
		h-0.7c0.3-0.6,0.8-1.8,1.7-3.5h0.2h0.1H91.9z M90.8,145H92h0.3c-0.2-0.4-0.4-1-0.7-1.6C91.4,143.8,91.1,144.4,90.8,145"/>
	<polygon class="st0" points="95.5,144.7 95.5,142.7 95.9,142.7 96.1,142.7 96.1,146.2 95.5,146.2 	"/>
	<path class="st0" d="M97.1,144.7v-2h0h0.3h0h0.3h0.1c0.5,0.6,1.2,1.6,2.1,2.7v-0.8v-2h0.4h0.2v3.5h-0.1h-0.6h-0.1
		c-0.4-0.5-1.1-1.4-2.1-2.7v2.7h-0.6V144.7z"/>
	<path class="st0" d="M105.2,144.9l0-1.5c-0.3,0.7-0.7,1.6-1.2,2.9h-0.5c-0.2-0.5-0.7-1.5-1.3-2.9l0,1.5v1.4h-0.6v-0.9v-2.6h0.3h0.3
		h0.4c0.2,0.5,0.6,1.4,1.2,2.8c0.3-0.6,0.7-1.6,1.2-2.8h0.4h0.3h0.3v3.5h-0.7V144.9z"/>
	<path class="st0" d="M107,145.8c-0.3-0.4-0.5-0.8-0.5-1.3c0-0.5,0.2-1,0.5-1.3c0.3-0.4,0.8-0.5,1.4-0.5c0.6,0,1,0.2,1.4,0.5
		c0.3,0.4,0.5,0.8,0.5,1.3c0,0.5-0.2,1-0.5,1.3c-0.3,0.4-0.8,0.5-1.4,0.5C107.8,146.3,107.4,146.2,107,145.8 M109.3,143.5
		c-0.2-0.2-0.5-0.4-0.9-0.4c-0.3,0-0.6,0.1-0.9,0.4c-0.2,0.2-0.3,0.6-0.3,1c0,0.4,0.1,0.7,0.3,0.9c0.2,0.2,0.5,0.4,0.9,0.4
		c0.3,0,0.6-0.1,0.9-0.4c0.2-0.2,0.3-0.6,0.3-0.9C109.6,144.1,109.5,143.8,109.3,143.5"/>
	<path class="st0" d="M113.8,146c-0.2,0.2-0.6,0.3-1.1,0.3h-1.2H111v-1.8v-1.7h0.6h1.1c0.4,0,0.8,0.1,1,0.3c0.2,0.2,0.3,0.4,0.3,0.7
		c0,0.1,0,0.2-0.1,0.4c-0.1,0.1-0.2,0.2-0.4,0.3c0.2,0.1,0.4,0.2,0.5,0.3c0.1,0.1,0.2,0.3,0.2,0.5C114.2,145.6,114,145.8,113.8,146
		 M112.2,143.2h-0.5v0.4v0.1v0.5h0.5h0.5c0.2,0,0.4,0,0.5-0.1c0.1-0.1,0.1-0.2,0.1-0.3c0-0.1,0-0.2-0.1-0.3
		c-0.1-0.1-0.3-0.1-0.5-0.1H112.2z M112.2,144.7h-0.6v0.4v0.1v0.5h0.6h0.5c0.2,0,0.4,0,0.5-0.1c0.1-0.1,0.2-0.2,0.2-0.4
		c0-0.2-0.1-0.3-0.2-0.4c-0.1-0.1-0.3-0.1-0.5-0.1H112.2z"/>
	<polygon class="st0" points="114.9,144.7 114.9,142.7 115.3,142.7 115.5,142.7 115.5,146.2 114.9,146.2 	"/>
	<polygon class="st0" points="119.2,145.7 119.2,146.2 117.1,146.2 116.5,146.2 116.5,145.7 116.5,142.7 117.1,142.7 117.1,145.7 	
		"/>
	<polygon class="st0" points="119.9,144.7 119.9,142.7 120.3,142.7 120.5,142.7 120.5,146.2 119.9,146.2 	"/>
	<path class="st0" d="M123.4,142.7L123.4,142.7c0.4,0.8,1,2,1.7,3.5h-0.7c-0.1-0.2-0.2-0.4-0.3-0.8h-1.9c-0.1,0.2-0.2,0.5-0.4,0.8
		h-0.7c0.3-0.6,0.8-1.8,1.7-3.5h0.2h0.1H123.4z M122.3,145h1.1h0.3c-0.2-0.4-0.4-1-0.7-1.6C122.9,143.8,122.6,144.4,122.3,145"/>
	<path class="st0" d="M128.9,146.2h-0.8c-0.2-0.2-0.5-0.7-1-1.4h-0.4h-0.5v0.6v0.7h-0.4h-0.2v-0.7v-0.6v-1.2v-1h0.6h1.1
		c0.5,0,0.8,0.1,1.1,0.3c0.2,0.2,0.4,0.5,0.4,0.8c0,0.3-0.1,0.6-0.4,0.8c-0.1,0.1-0.3,0.2-0.5,0.2
		C128.1,145.1,128.4,145.6,128.9,146.2 M127.9,143.4c-0.1-0.1-0.3-0.1-0.6-0.1h-0.5h-0.5v0.5v0.1v0.4h0.5h0.5c0.2,0,0.4,0,0.6-0.1
		c0.1-0.1,0.2-0.2,0.2-0.4C128.1,143.6,128,143.5,127.9,143.4"/>
	<polygon class="st0" points="129.6,144.7 129.6,142.7 130,142.7 130.3,142.7 130.3,146.2 129.6,146.2 	"/>
	<path class="st0" d="M133.1,142.7L133.1,142.7c0.4,0.8,1,2,1.7,3.5h-0.7c-0.1-0.2-0.2-0.4-0.3-0.8h-1.9c-0.1,0.2-0.2,0.5-0.4,0.8
		h-0.7c0.3-0.6,0.8-1.8,1.7-3.5h0.2h0.1H133.1z M132.1,145h1.1h0.3c-0.2-0.4-0.4-1-0.7-1.6C132.6,143.8,132.4,144.4,132.1,145"/>
	<path class="st0" d="M79.6,132.6c1,0,1.8-0.2,2.3-0.5c0.6-0.4,0.8-1,0.8-1.8c0-0.8-0.3-1.4-0.8-1.8c-0.6-0.4-1.3-0.5-2.3-0.5h-2.1
		h-2.3v2.3v0.5v1.9h2.2H79.6z"/>
	<path class="st0" d="M75.2,137.5v2.6h7.5c-0.8-1.1-2.1-2.9-3.9-5.3h-1.5h-2.1V137.5z"/>
	<path class="st0" d="M40.4,125.7h-3.1l0,14.5H5.6V89.4l31.7-58.9v78.6l3.1,0V4l48.2,64.5l0,71.6H86c-1.9-2.5-3.3-4.4-4.2-5.6
		c0.9-0.2,1.7-0.5,2.3-1c1-0.8,1.5-1.9,1.5-3.3c0-1.4-0.5-2.5-1.5-3.3c-1-0.8-2.6-1.2-4.5-1.2h-4.8h-2.3v4.3v5.1v2.5v2.6h-2.1v-1.8
		H61v-4.3h8.4v-2.2H61v-4h9.4v-2.2H58.2v14.5c0,0-2,0-4.7,0c0,0,1.4-0.4,2.2-1.5c1.2-1.6,1.1-4.6-1.9-5.7c1.2-0.4,3.9-4-0.3-6.6
		c-0.7-0.3-2-0.7-2.6-0.7H43v14.5h-2.6V125.7"/>
	<path class="st0" d="M48,127.4h-2.2v1.7v0.4v2H48h2.1c1,0,1.7-0.2,2.1-0.6c0.4-0.4,0.6-0.9,0.6-1.4c0-0.6-0.2-1-0.6-1.5
		c-0.4-0.4-1.1-0.6-2.1-0.6H48z"/>
	<path class="st0" d="M48.1,134.1h-2.4v1.8v0.5v2.1h2.4h2.3c1,0,1.8-0.2,2.3-0.5c0.5-0.3,0.8-0.9,0.8-1.6c0-0.7-0.3-1.3-0.8-1.7
		c-0.5-0.4-1.3-0.6-2.3-0.6H48.1z"/>
	<path class="st0" d="M125.1,140.2h7.9c-0.8-1.1-2.2-3-4-5.5C128,136.1,126.7,137.9,125.1,140.2"/>
	<path class="st0" d="M105.8,55.9v84.2h3.1v-14.5h2.8h9.4v2.2h-9.4v4h8.4v2.2h-8.4v4.3h9.4v1.8h0.9c1-1.4,2.8-3.8,5.2-7.1
		c-1-1.4-2.8-3.8-5.3-7.3h3.2c0.8,1,2.1,2.9,4,5.6c1-1.4,2.3-3.3,4-5.6h3.2c-0.9,1.2-2.7,3.7-5.3,7.3c1,1.4,2.7,3.8,5.2,7.1h-0.1h10
		V96.8L105.8,55.9z"/>
	<rect x="5.6" y="142.9" class="st0" width="31.7" height="3.3"/>
	<rect x="136.1" y="143" class="st0" width="10" height="3.2"/>
</g>
</svg>
